<?xml version="1.0" encoding="UTF-8"?>
<svg width="55px" height="55px" viewBox="0 0 55 55" version="1.1" xmlns="http://www.w3.org/2000/svg" xmlns:xlink="http://www.w3.org/1999/xlink">
    <!-- Generator: Sketch 50.2 (55047) - http://www.bohemiancoding.com/sketch -->
    <title>Iconos círculo</title>
    <desc>Created with Sketch.</desc>
    <defs></defs>
    <g id="Page-1" stroke="none" stroke-width="1" fill="none" fill-rule="evenodd">
        <g id="[Móvil]-Popup-crear-nuevo" transform="translate(-119.000000, -269.000000)">
            <g id="Botón-Crear-Nuevo-Activo-Principal" transform="translate(119.000000, 269.000000)">
                <g id="Iconos-círculo">
                    <g id="Botón-Crear-Nuevo" fill="#6E9ADB">
                        <circle id="Oval" cx="27.5" cy="27.5" r="27.5"></circle>
                    </g>
                    <g id="cross" transform="translate(13.750000, 24.444444)" fill="#6E9ADB" stroke="#C7D0DF" stroke-linecap="round" stroke-linejoin="round">
                        <path d="M3.05555556,0.960509659 L3.05555556,7.63888889" id="Shape"></path>
                        <path d="M0,4.29969927 L6.11111111,4.29969927" id="Shape"></path>
                    </g>
                    <g id="file-text" transform="translate(24.444444, 16.805556)" stroke="#FFFFFF" stroke-linecap="round" stroke-linejoin="round">
                        <path d="M10.0833333,0 L2.01666667,0 C0.902892421,0 0,0.902892421 0,2.01666667 L0,18.15 C0,19.2637742 0.902892421,20.1666667 2.01666667,20.1666667 L14.1166667,20.1666667 C15.2304409,20.1666667 16.1333333,19.2637742 16.1333333,18.15 L16.1333333,6.05 L10.0833333,0 Z" id="Shape"></path>
                        <polyline id="Shape" points="10.0833333 0 10.0833333 6.05 16.1333333 6.05"></polyline>
                        <path d="M12.1,11.0916667 L4.03333333,11.0916667" id="Shape"></path>
                        <path d="M12.1,15.125 L4.03333333,15.125" id="Shape"></path>
                        <polyline id="Shape" points="6.05 7.05833333 5.04166667 7.05833333 4.03333333 7.05833333"></polyline>
                    </g>
                </g>
            </g>
        </g>
    </g>
</svg>