<?xml version="1.0" encoding="UTF-8"?>
<svg width="72px" height="69px" viewBox="0 0 72 69" version="1.1" xmlns="http://www.w3.org/2000/svg" xmlns:xlink="http://www.w3.org/1999/xlink">
    <!-- Generator: Sketch 50.2 (55047) - http://www.bohemiancoding.com/sketch -->
    <title>Logo Blanco</title>
    <desc>Created with Sketch.</desc>
    <defs>
        <radialGradient cx="4.887%" cy="11.341%" fx="4.887%" fy="11.341%" r="11.0343555%" id="radialGradient-1">
            <stop stop-color="#ED1C24" offset="0%"></stop>
            <stop stop-color="#BF1B2C" offset="53.2258%"></stop>
            <stop stop-color="#9E2030" offset="100%"></stop>
        </radialGradient>
    </defs>
    <g id="Symbols" stroke="none" stroke-width="1" fill="none" fill-rule="evenodd">
        <g id="Menú-Desktop" transform="translate(-102.000000, -15.000000)" fill-rule="nonzero">
            <g id="Logo-Blanco">
                <g transform="translate(138.000000, 49.500000) scale(-1, 1) rotate(180.000000) translate(-138.000000, -49.500000) translate(102.000000, 15.000000)">
                    <path d="M53.5655531,14.999855 L50.4812193,14.999855 C50.1178201,14.999855 49.8527602,15.2874609 49.8898816,15.6585442 L50.3893926,20.5471926 L47.4633132,20.5471926 C44.1191294,16.9994008 40.2871572,13.8800832 36.0396856,11.3138036 C21.3363483,20.1943699 11.5734157,35.6931331 9.91793079,52.7590551 C17.8996867,57.1422735 26.8733007,59.4450774 36.0475007,59.4450774 C45.2164906,59.4450774 54.1848947,57.1448822 62.1581842,52.7707941 C62.0526813,51.6751525 61.9113594,50.5873369 61.7407311,49.5073474 L71.3134979,49.5073474 C71.5655327,51.3797206 71.7420223,53.2716588 71.8260339,55.1766404 L71.9484695,57.9561787 L69.5818163,59.4209472 C59.5219124,65.645887 47.9250515,68.9367247 36.0475007,68.9367247 C24.162786,68.9367247 12.5607152,65.6426261 2.49234493,59.408556 L0.126994308,57.9450919 L0.250732364,55.1642492 C1.23282178,32.813161 14.084647,12.3174896 33.7915605,1.67346208 L36.0396856,0.458473828 L38.2897645,1.67346208 C44.7293534,5.15081976 50.4304215,9.68729763 55.2295044,14.9907246 L53.7231563,14.9907246 C53.6710561,14.9907246 53.6183046,14.9972463 53.5655531,14.999855" id="path242" fill="#FFFFFF"></path>
                    <g id="g236" transform="translate(41.664948, 37.904699)" fill="#FFFFFF">
                        <path d="M5.86127633,0.652167607 L6.1439201,5.56103318 C6.16020142,5.79972653 5.97785061,5.9895073 5.74339955,5.9895073 L0.844023792,5.9895073 C0.608270233,5.9895073 0.407684331,5.79972653 0.39400802,5.56103318 L0.128948079,0.942382192 L0.110061744,0.652167607 C0.0957341801,0.420648106 0.276131241,0.226954327 0.510582294,0.226954327 L0.738520818,0.226954327 L5.41060931,0.226954327 C5.64571161,0.226954327 5.84629751,0.420648106 5.86127633,0.652167607" id="path238"></path>
                    </g>
                    <g id="g198" transform="translate(61.525622, 23.783118)" fill="url(#radialGradient-1)">
                        <g id="g200">
                            <g id="g206">
                                <g id="g208">
                                    <path d="M0.595896427,0.419995939 C0.603711462,0.397170073 0.608270233,0.372387703 0.614131509,0.349561837 C0.62780782,0.374344206 0.643437891,0.39521357 0.658416708,0.419995939 L0.595896427,0.419995939 Z" id="path218"></path>
                                </g>
                            </g>
                        </g>
                    </g>
                    <g id="g232" transform="translate(44.294772, 18.144803)" fill="#FFFFFF">
                        <path d="M24.0963583,28.0432071 L13.0218022,28.0432071 C12.4936361,28.0432071 12.0175702,27.6140808 11.9648188,27.0799555 L10.8837389,16.5089708 C10.7867022,15.5691973 10.0735803,14.785944 9.18722502,14.5400768 C9.00096669,14.4892077 8.80754457,14.4507298 8.61216869,14.4507298 C8.41549031,14.4507298 8.23118573,14.4892077 8.05664994,14.5400768 L2.00260275,14.5400768 C1.64115737,14.5400768 1.31553091,14.2446449 1.27840949,13.8800832 L0.5008135,6.28885223 C0.463692083,5.91776886 0.727449518,5.63016295 1.09084865,5.63016295 L6.89676848,5.63016295 L8.2136019,5.63016295 C8.98468536,5.63016295 9.55062416,5.00212554 9.4711713,4.22604609 L9.33505944,2.90931969 L9.08367581,0.459778163 C9.06088196,0.244562853 9.2165314,0.0736949396 9.42883986,0.0736949396 L13.8892711,0.0736949396 C14.1028821,0.0736949396 14.2950017,0.244562853 14.3177956,0.459778163 L14.7749751,4.9245176 C14.7964665,5.13842857 14.6388633,5.30799215 14.4252523,5.30799215 L12.0175702,5.30799215 L10.7039931,5.30799215 C9.92835085,5.30799215 9.36697083,5.93472522 9.44642369,6.71276118 L9.57927928,8.02883541 L10.078139,12.8672669 C10.0800928,12.9018318 10.0735803,12.9363966 10.078139,12.9722659 C10.0800928,13.0087873 10.0944203,13.0420478 10.0976766,13.077917 C10.2643974,14.1670369 11.247138,15.0331155 12.3458017,15.0331155 L22.7638948,15.0331155 C23.2979222,15.0331155 23.7707318,15.4635461 23.8241345,15.9970192 L24.9612221,27.0799555 C25.0146249,27.6140808 24.6297344,28.0432071 24.0963583,28.0432071" id="path234"></path>
                    </g>
                </g>
            </g>
        </g>
    </g>
</svg>